<svg xmlns="http://www.w3.org/2000/svg" width="110" height="68.998" viewBox="0 27.750 110 68.998" fill="none"><svg x="4.378" y="31.128" width="100.001" height="63.751" viewBox="0 0 100.003 63.75" preserveAspectRatio="none" overflow="visible">
<path id="Vector" d="M54.9157 0C62.6034 2.5e-05 68.9214 5.88208 69.6485 13.407C72.0176 14.5543 74.0994 15.9126 75.9094 17.4878C82.9869 23.647 85 32.2879 85 41.4465C85 41.9857 84.9815 42.5157 84.9524 43.0371C89.7344 43.3196 95.143 42.306 100.002 38.4802C97.4075 42.8245 91.0357 49.9689 82.3438 52.2986C81.9664 52.944 81.5515 53.5656 81.0913 54.1589C78.4845 57.5197 74.8612 59.6239 70.8911 60.9729C63.1787 63.5933 52.8673 63.75 42.5 63.75C32.1327 63.75 21.8212 63.5933 14.1089 60.9729C10.1387 59.6239 6.51556 57.5197 3.90869 54.1589C1.26982 50.7567 0.000125 46.4905 0 41.4465C0 32.2879 2.01314 23.647 9.09057 17.4878C10.9006 15.9128 12.9825 14.5541 15.3515 13.407C16.0786 5.88208 22.3966 2.5e-05 30.0842 0C35.2855 0 39.8597 2.69291 42.5 6.76514C45.1403 2.69291 49.7145 0 54.9157 0Z" fill="#A5D085"/>
</svg><svg x="2.497" y="29.250" width="103.752" height="67.498" viewBox="0 0 103.753 67.5" preserveAspectRatio="none" overflow="visible">
<path id="Vector" d="M71.5235 15.282L69.6571 15.4624C69.72 16.1134 70.1176 16.6845 70.7062 16.9695L71.5235 15.282ZM86.8274 44.9121L84.9554 44.8074C84.8976 45.839 85.6854 46.7229 86.7169 46.7839L86.8274 44.9121ZM101.877 40.3552L103.487 41.3167C103.951 40.5405 103.795 39.544 103.115 38.947C102.436 38.35 101.428 38.3228 100.718 38.882L101.877 40.3552ZM84.2188 54.1736L83.7334 52.3625C83.2566 52.4902 82.8494 52.8009 82.6003 53.227L84.2188 54.1736ZM17.2265 15.282L18.0438 16.9695C18.6324 16.6845 19.03 16.1132 19.0929 15.4624L17.2265 15.282ZM44.375 8.64014L42.8018 9.66017C43.1474 10.1933 43.7396 10.5151 44.375 10.5151C45.0104 10.5151 45.6026 10.1933 45.9482 9.66017L44.375 8.64014ZM56.7907 1.875V3.75C63.4974 3.75001 69.0214 8.88337 69.6571 15.4624L71.5235 15.282L73.3897 15.1016C72.5712 6.63076 65.4592 2.38419e-05 56.7907 0V1.875ZM71.5235 15.282L70.7062 16.9695C72.9395 18.0509 74.8794 19.3204 76.5536 20.7772L77.7844 19.3628L79.0154 17.9484C77.0694 16.2549 74.8458 14.8075 72.3406 13.5944L71.5235 15.282ZM77.7844 19.3628L76.5536 20.7772C83.0393 26.4214 85 34.4041 85 43.3215H86.875L88.75 43.3216C88.75 33.9217 86.6845 24.6226 79.0154 17.9484L77.7844 19.3628ZM86.875 43.3215H85C85 43.8182 84.983 44.3125 84.9554 44.8074L86.8274 44.9121L88.6995 45.0168C88.7301 44.4691 88.75 43.9032 88.75 43.3216L86.875 43.3215ZM86.8274 44.9121L86.7169 46.7839C91.8499 47.0871 97.7413 45.9979 103.037 41.8285L101.877 40.3552L100.718 38.882C96.2946 42.3641 91.3689 43.3021 86.938 43.0404L86.8274 44.9121ZM101.877 40.3552L100.268 39.3937C97.8174 43.496 91.7874 50.2039 83.7334 52.3625L84.2188 54.1736L84.7041 55.9846C94.0341 53.484 100.748 45.903 103.487 41.3167L101.877 40.3552ZM84.2188 54.1736L82.6003 53.227C82.2601 53.8085 81.8905 54.3616 81.4847 54.8847L82.9663 56.0339L84.4479 57.1831C84.9625 56.5196 85.4225 55.8294 85.8372 55.1201L84.2188 54.1736ZM82.9663 56.0339L81.4847 54.8847C79.1714 57.8671 75.9086 59.7999 72.1629 61.0726L72.7661 62.8479L73.3693 64.6233C77.5638 63.198 81.5475 60.9224 84.4479 57.1831L82.9663 56.0339ZM72.7661 62.8479L72.1629 61.0726C64.7996 63.5744 54.8195 63.75 44.375 63.75V65.625V67.5C54.665 67.5 65.3079 67.3623 73.3693 64.6233L72.7661 62.8479ZM44.375 65.625V63.75C33.9305 63.75 23.9504 63.5744 16.5871 61.0726L15.9839 62.8479L15.3806 64.6233C23.442 67.3623 34.085 67.5 44.375 67.5V65.625ZM15.9839 62.8479L16.5871 61.0726C12.8414 59.7999 9.57859 57.8671 7.26525 54.8847L5.78369 56.0339L4.30211 57.1831C7.20251 60.9224 11.1861 63.198 15.3806 64.6233L15.9839 62.8479ZM5.78369 56.0339L7.26525 54.8847C4.93346 51.8785 3.75011 48.0431 3.75 43.3215H1.875H0C0.000129044 48.6876 1.35616 53.385 4.30211 57.1831L5.78369 56.0339ZM1.875 43.3215H3.75C3.75 34.4041 5.71084 26.4214 12.1965 20.7772L10.9656 19.3628L9.73472 17.9484C2.06549 24.6226 0 33.9216 0 43.3215H1.875ZM10.9656 19.3628L12.1965 20.7772C13.8705 19.3205 15.8108 18.0509 18.0438 16.9695L17.2265 15.282L16.4094 13.5945C13.9044 14.8075 11.6807 16.255 9.73472 17.9484L10.9656 19.3628ZM17.2265 15.282L19.0929 15.4624C19.7286 8.88337 25.2526 3.75001 31.9592 3.75V1.875V0C23.2907 2.35439e-05 16.1788 6.63076 15.3603 15.1016L17.2265 15.282ZM31.9592 1.875V3.75C36.4964 3.75 40.4913 6.0966 42.8018 9.66017L44.375 8.64014L45.9482 7.6201C42.9782 3.03924 37.8246 0 31.9592 0V1.875ZM44.375 8.64014L45.9482 9.66017C48.2587 6.0966 52.2536 3.75 56.7907 3.75V1.875V0C50.9254 0 45.7718 3.03924 42.8018 7.6201L44.375 8.64014Z" fill="#3A4A30"/>
</svg><svg x="32.505" y="81.871" width="29.997" height="11.878" viewBox="0 0 30.001 11.8756" preserveAspectRatio="none" overflow="visible">
<g id="Group">
<path id="Vector" d="M2.41962 0.0811771C1.42862 -0.219323 0.381684 0.340425 0.0811839 1.33143C-0.219329 2.32243 0.340409 3.36943 1.33137 3.66993L1.8755 1.87555L2.41962 0.0811771ZM8.1255 11.8756H10.0005C10.0005 10.2947 9.64512 7.8908 8.56899 5.6263C7.48062 3.33605 5.57237 1.0373 2.41962 0.0811771L1.8755 1.87555L1.33137 3.66993C3.17862 4.23005 4.39537 5.58055 5.182 7.2358C5.98087 8.9168 6.2505 10.7548 6.2505 11.8756H8.1255Z" fill="#3A4A30"/>
<path id="Vector_2" d="M27.5814 0.0811771C28.5724 -0.219323 29.6194 0.340425 29.9199 1.33143C30.2204 2.32243 29.6606 3.36943 28.6696 3.66993L28.1255 1.87555L27.5814 0.0811771ZM21.8755 11.8756H20.0005C20.0005 10.2947 20.3559 7.8908 21.432 5.6263C22.5204 3.33605 24.4286 1.0373 27.5814 0.0811771L28.1255 1.87555L28.6696 3.66993C26.8224 4.23005 25.6056 5.58055 24.819 7.2358C24.0201 8.9168 23.7505 10.7548 23.7505 11.8756H21.8755Z" fill="#3A4A30"/>
</g>
</svg><svg x="20.630" y="48.208" width="53.748" height="23.035" viewBox="0 0 53.75 23.0469" preserveAspectRatio="none" overflow="visible">
<g id="Group">
<g id="Vector" opacity="0.82" filter="url(#filter0_f_1_1417)">
<path d="M10 18.0469C12.7614 18.0469 15 15.8083 15 13.0469C15 10.2855 12.7614 8.04687 10 8.04687C7.23858 8.04687 5 10.2855 5 13.0469C5 15.8083 7.23858 18.0469 10 18.0469Z" fill="#F1CE8E"/>
</g>
<g id="Vector_2" opacity="0.82" filter="url(#filter1_f_1_1417)">
<path d="M43.75 18.0469C46.5114 18.0469 48.75 15.8083 48.75 13.0469C48.75 10.2855 46.5114 8.04687 43.75 8.04687C40.9886 8.04687 38.75 10.2855 38.75 13.0469C38.75 15.8083 40.9886 18.0469 43.75 18.0469Z" fill="#F1CE8E"/>
</g>
<path id="Vector_3" d="M9.0625 1.17188H17.1875" stroke="#3A4A30" stroke-width="2.34375" stroke-linecap="round"/>
<path id="Vector_4" d="M35.3125 1.17188H43.4375" stroke="#3A4A30" stroke-width="2.34375" stroke-linecap="round"/>
<path id="Vector_5" d="M24.6875 6.79687C26.1458 7.63021 27.6042 7.63021 29.0625 6.79687" stroke="#3A4A30" stroke-width="2.625" stroke-linecap="round"/>
</g>
<defs>
<filter id="filter0_f_1_1417" x="0" y="3.04687" width="20" height="20" filterUnits="userSpaceOnUse" color-interpolation-filters="sRGB">
<feFlood flood-opacity="0" result="BackgroundImageFix"/>
<feBlend mode="normal" in="SourceGraphic" in2="BackgroundImageFix" result="shape"/>
<feGaussianBlur stdDeviation="2.5" result="effect1_foregroundBlur_1_1417"/>
</filter>
<filter id="filter1_f_1_1417" x="33.75" y="3.04687" width="20" height="20" filterUnits="userSpaceOnUse" color-interpolation-filters="sRGB">
<feFlood flood-opacity="0" result="BackgroundImageFix"/>
<feBlend mode="normal" in="SourceGraphic" in2="BackgroundImageFix" result="shape"/>
<feGaussianBlur stdDeviation="2.5" result="effect1_foregroundBlur_1_1417"/>
</filter>
</defs>
</svg></svg>