<svg xmlns="http://www.w3.org/2000/svg" viewBox="0 0 320 692" width="960" height="2076"><g id="nuages"><rect x="194.30" y="152.30" width="83.40" height="21.40" rx="10.70" fill="#1D1B22" /><circle cx="212" cy="156" r="15.70" fill="#1D1B22" /><circle cx="234" cy="146" r="21.70" fill="#1D1B22" /><circle cx="258" cy="154" r="16.70" fill="#1D1B22" /><circle cx="272" cy="162" r="9.70" fill="#1D1B22" /><rect x="196" y="154" width="80" height="18" rx="9" fill="#3E3A5C" /><circle cx="212" cy="156" r="14" fill="#3E3A5C" /><circle cx="234" cy="146" r="20" fill="#3E3A5C" /><circle cx="258" cy="154" r="15" fill="#3E3A5C" /><circle cx="272" cy="162" r="8" fill="#3E3A5C" /><rect x="197.6" y="155" width="73.2" height="11.2" rx="5.6" fill="#4A4468" /><circle cx="210.2" cy="153.6" r="10.6" fill="#4A4468" /><circle cx="232.2" cy="143.6" r="16.6" fill="#4A4468" /><circle cx="256.2" cy="151.6" r="11.6" fill="#4A4468" /><circle cx="270.2" cy="159.6" r="4.6" fill="#4A4468" /><ellipse cx="228" cy="136" rx="8" ry="3.2" fill="#5C5680" /><rect x="25.10" y="109.80" width="65.80" height="17.40" rx="8.70" fill="#1D1B22" /><circle cx="39.3" cy="113.1" r="12.60" fill="#1D1B22" /><circle cx="56.4" cy="105.3" r="17.30" fill="#1D1B22" /><circle cx="75.2" cy="111.5" r="13.40" fill="#1D1B22" /><circle cx="86.1" cy="117.8" r="7.90" fill="#1D1B22" /><rect x="26.8" y="111.5" width="62.4" height="14" rx="7" fill="#3E3A5C" /><circle cx="39.3" cy="113.1" r="10.9" fill="#3E3A5C" /><circle cx="56.4" cy="105.3" r="15.6" fill="#3E3A5C" /><circle cx="75.2" cy="111.5" r="11.7" fill="#3E3A5C" /><circle cx="86.1" cy="117.8" r="6.2" fill="#3E3A5C" /><rect x="28.4" y="112.5" width="55.6" height="7.2" rx="3.6" fill="#4A4468" /><circle cx="37.5" cy="110.7" r="7.5" fill="#4A4468" /><circle cx="54.6" cy="102.9" r="12.2" fill="#4A4468" /><circle cx="73.4" cy="109.1" r="8.3" fill="#4A4468" /><circle cx="84.3" cy="115.4" r="2.8" fill="#4A4468" /><ellipse cx="51.8" cy="97.5" rx="6.2" ry="2.5" fill="#5C5680" /><rect x="137.50" y="240.00" width="45.00" height="12.80" rx="6.40" fill="#1D1B22" /><circle cx="147.5" cy="242.7" r="9.00" fill="#1D1B22" /><circle cx="159" cy="237.5" r="12.10" fill="#1D1B22" /><circle cx="171.4" cy="241.7" r="9.50" fill="#1D1B22" /><circle cx="178.7" cy="245.8" r="5.90" fill="#1D1B22" /><rect x="139.2" y="241.7" width="41.6" height="9.4" rx="4.7" fill="#3E3A5C" /><circle cx="147.5" cy="242.7" r="7.3" fill="#3E3A5C" /><circle cx="159" cy="237.5" r="10.4" fill="#3E3A5C" /><circle cx="171.4" cy="241.7" r="7.8" fill="#3E3A5C" /><circle cx="178.7" cy="245.8" r="4.2" fill="#3E3A5C" /><rect x="140.8" y="242.7" width="34.8" height="2.6" rx="1.3" fill="#4A4468" /><circle cx="145.7" cy="240.3" r="3.9" fill="#4A4468" /><circle cx="157.2" cy="235.1" r="7" fill="#4A4468" /><circle cx="169.6" cy="239.3" r="4.4" fill="#4A4468" /><circle cx="176.9" cy="243.4" r="0.8" fill="#4A4468" /><ellipse cx="155.8" cy="232.3" rx="4.2" ry="1.7" fill="#5C5680" /><g id="volants"><path d="M148 196 C142 188 136 188 132 192 C135 196 137 197 139 199 C141 197 143 197 148 199 C153 197 155 197 157 199 C159 197 161 196 164 192 C160 188 154 188 148 196Z" fill="#6C5A9C" stroke="#1D1B22" stroke-width="1.70" stroke-linejoin="round" stroke-linecap="round" /><ellipse cx="148" cy="196" rx="3.6" ry="4.2" fill="#6C5A9C" stroke="#1D1B22" stroke-width="1.70" stroke-linejoin="round" stroke-linecap="round" /><path d="M176 180 C171.2 173.6 166.4 173.6 163.2 176.8 C165.6 180 167.2 180.8 168.8 182.4 C170.4 180.8 172 180.8 176 182.4 C180 180.8 181.6 180.8 183.2 182.4 C184.8 180.8 186.4 180 188.8 176.8 C185.6 173.6 180.8 173.6 176 180Z" fill="#6C5A9C" stroke="#1D1B22" stroke-width="1.70" stroke-linejoin="round" stroke-linecap="round" /><ellipse cx="176" cy="180" rx="2.9" ry="3.4" fill="#6C5A9C" stroke="#1D1B22" stroke-width="1.70" stroke-linejoin="round" stroke-linecap="round" /><path d="M262 232 C257.8 226.4 253.6 226.4 250.8 229.2 C252.9 232 254.3 232.7 255.7 234.1 C257.1 232.7 258.5 232.7 262 234.1 C265.5 232.7 266.9 232.7 268.3 234.1 C269.7 232.7 271.1 232 273.2 229.2 C270.4 226.4 266.2 226.4 262 232Z" fill="#6C5A9C" stroke="#1D1B22" stroke-width="1.70" stroke-linejoin="round" stroke-linecap="round" /><ellipse cx="262" cy="232" rx="2.5" ry="2.9" fill="#6C5A9C" stroke="#1D1B22" stroke-width="1.70" stroke-linejoin="round" stroke-linecap="round" /></g></g></svg>